<svg width="24" height="32" viewBox="0 0 24 32" fill="none" xmlns="http://www.w3.org/2000/svg">
<path d="M12 31.4167C11.6833 31.4167 11.3667 31.3 11.1167 31.05L1 20.9333C0.516666 20.45 0.516666 19.65 1 19.1667C1.48333 18.6833 2.28333 18.6833 2.76667 19.1667L12 28.4L21.2333 19.1667C21.7167 18.6833 22.5167 18.6833 23 19.1667C23.4833 19.65 23.4833 20.45 23 20.9333L12.8833 31.05C12.6333 31.3 12.3167 31.4167 12 31.4167Z" fill="white"/>
<path d="M12 31.1333C11.3167 31.1333 10.75 30.5667 10.75 29.8833V1.83333C10.75 1.15 11.3167 0.583333 12 0.583333C12.6833 0.583333 13.25 1.15 13.25 1.83333V29.8833C13.25 30.5667 12.6833 31.1333 12 31.1333Z" fill="white"/>
</svg>
